<?xml version="1.0" encoding="utf-8"?>
<!-- Generator: Adobe Illustrator 21.1.0, SVG Export Plug-In . SVG Version: 6.00 Build 0)  -->
<svg version="1.1" id="Layer_1" xmlns="http://www.w3.org/2000/svg" xmlns:xlink="http://www.w3.org/1999/xlink" x="0px" y="0px"
	 viewBox="0 0 353.3 86.5" style="enable-background:new 0 0 353.3 86.5;" xml:space="preserve">
<style type="text/css">
	.st0{fill:#007CBA;}
	.st1{fill:#72D0EB;}
	.st2{fill:#BDBBBB;}
	.st3{fill:#FFB547;}
	.st4{fill:#717271;}
</style>
<g>
	<g>
		<g>
			<polygon class="st0" points="27,43.2 53.6,0 80.9,43.2 			"/>
		</g>
		<g>
			<polygon class="st1" points="0,0 27,43.2 53.6,0 			"/>
		</g>
		<g>
			<polygon class="st2" points="53.6,86.5 80.9,43.2 27,43.2 			"/>
		</g>
		<g>
			<polygon class="st3" points="0,86.5 53.6,86.5 27,43.2 			"/>
		</g>
	</g>
	<g>
		<g>
			<path class="st4" d="M119.3,14.9h19.9c4,0,7.6,0.5,10.6,1.4c3,0.9,5.7,2.1,7.9,3.7c2.2,1.5,4.1,3.3,5.6,5.3c1.5,2,2.6,4,3.5,6.1
				c0.9,2.1,1.5,4.2,1.9,6.3c0.4,2.1,0.6,4,0.6,5.8c0,3.7-0.7,7.2-2,10.6c-1.3,3.4-3.3,6.5-6,9.1c-2.6,2.7-5.9,4.8-9.8,6.4
				c-3.9,1.6-8.4,2.4-13.5,2.4h-18.6V14.9z M127,64.8h9.8c3.3,0,6.4-0.4,9.3-1.3c2.9-0.9,5.5-2.2,7.7-4c2.2-1.8,4-4,5.2-6.7
				s1.9-5.8,1.9-9.3c0-1.8-0.3-4-0.9-6.4c-0.6-2.4-1.7-4.8-3.3-7c-1.6-2.2-3.9-4.1-6.8-5.6s-6.7-2.3-11.3-2.3H127V64.8z"/>
			<path class="st4" d="M180.8,55.6c0,1.7,0.4,3.2,1.1,4.6c0.7,1.4,1.7,2.5,2.9,3.5c1.2,1,2.6,1.7,4.1,2.3c1.6,0.5,3.2,0.8,4.8,0.8
				c2.3,0,4.2-0.5,5.9-1.6c1.7-1,3.2-2.4,4.6-4.2l5.5,4.2c-4,5.2-9.7,7.8-17,7.8c-3,0-5.7-0.5-8.2-1.5c-2.4-1-4.5-2.4-6.2-4.2
				c-1.7-1.8-3-3.9-3.9-6.4c-0.9-2.4-1.4-5.1-1.4-8c0-2.9,0.5-5.5,1.5-8c1-2.4,2.4-4.6,4.1-6.4c1.7-1.8,3.8-3.2,6.3-4.2
				c2.4-1,5.1-1.5,7.9-1.5c3.4,0,6.3,0.6,8.6,1.8c2.3,1.2,4.3,2.7,5.8,4.6c1.5,1.9,2.6,4.1,3.3,6.5c0.7,2.4,1,4.8,1,7.3v2.6H180.8z
				 M203.7,49.8c-0.1-1.6-0.3-3.1-0.8-4.4c-0.5-1.3-1.1-2.5-2.1-3.5c-0.9-1-2.1-1.8-3.4-2.3s-3-0.8-4.8-0.8c-1.8,0-3.4,0.3-4.9,1
				c-1.5,0.7-2.7,1.5-3.8,2.6c-1,1.1-1.8,2.3-2.4,3.6c-0.6,1.3-0.8,2.6-0.8,3.9H203.7z"/>
			<path class="st4" d="M216.9,33.8h7.3v5.9h0.2c0.9-2,2.5-3.7,4.8-5c2.3-1.3,4.9-1.9,7.8-1.9c1.8,0,3.6,0.3,5.3,0.8
				c1.7,0.6,3.2,1.4,4.4,2.6c1.3,1.2,2.3,2.7,3,4.6c0.8,1.9,1.1,4,1.1,6.6v24.6h-7.3V49.5c0-1.8-0.2-3.3-0.7-4.6
				c-0.5-1.3-1.1-2.3-1.9-3.1c-0.8-0.8-1.7-1.3-2.8-1.7c-1-0.3-2.1-0.5-3.3-0.5c-1.5,0-2.9,0.2-4.2,0.7c-1.3,0.5-2.4,1.3-3.4,2.3
				c-1,1-1.7,2.4-2.3,4c-0.5,1.6-0.8,3.5-0.8,5.7v19.7h-7.3V33.8z"/>
			<path class="st4" d="M257.5,20.1c0-1.5,0.5-2.7,1.6-3.8s2.3-1.6,3.8-1.6c1.5,0,2.7,0.5,3.8,1.6s1.6,2.3,1.6,3.8
				c0,1.5-0.5,2.7-1.6,3.8s-2.3,1.6-3.8,1.6c-1.5,0-2.7-0.5-3.8-1.6S257.5,21.5,257.5,20.1z M259.2,33.8h7.3v38.3h-7.3V33.8z"/>
			<path class="st4" d="M274.7,33.8h6.8v6h0.2c0.2-0.5,0.6-1.2,1.3-2c0.7-0.8,1.5-1.6,2.6-2.3c1-0.7,2.3-1.3,3.7-1.9
				c1.4-0.5,3-0.8,4.7-0.8c2.9,0,5.2,0.6,7.2,1.8c1.9,1.2,3.5,3,4.8,5.3c1.2-2.4,3-4.1,5.2-5.3c2.3-1.2,4.5-1.8,6.9-1.8
				c3,0,5.4,0.5,7.3,1.5c1.9,1,3.4,2.2,4.4,3.8c1.1,1.6,1.8,3.4,2.2,5.4c0.4,2,0.6,4.1,0.6,6.3v22.3h-7.3V50.8
				c0-1.5-0.1-2.9-0.3-4.2c-0.2-1.3-0.6-2.5-1.2-3.6c-0.6-1-1.4-1.8-2.5-2.5c-1.1-0.6-2.5-0.9-4.3-0.9c-3.5,0-6,1.1-7.5,3.2
				c-1.5,2.2-2.3,4.9-2.3,8.3v20.9H300v-20c0-1.8-0.1-3.5-0.3-5c-0.2-1.5-0.6-2.8-1.1-3.9c-0.6-1.1-1.4-2-2.4-2.6
				c-1-0.6-2.5-0.9-4.2-0.9c-1.3,0-2.5,0.3-3.8,0.8c-1.2,0.5-2.3,1.3-3.2,2.3c-0.9,1-1.6,2.3-2.2,3.9c-0.5,1.6-0.8,3.5-0.8,5.6v19.9
				h-7.3V33.8z"/>
		</g>
		<g>
			<g>
				<path class="st4" d="M337.9,36.3c0-1.1,0.2-2.1,0.6-3s1-1.7,1.7-2.4c0.7-0.7,1.5-1.3,2.4-1.7c0.9-0.4,1.9-0.6,3-0.6
					c1.1,0,2.1,0.2,3,0.6c0.9,0.4,1.7,1,2.4,1.7c0.7,0.7,1.2,1.5,1.7,2.4c0.4,0.9,0.6,1.9,0.6,3s-0.2,2.1-0.6,3
					c-0.4,0.9-1,1.7-1.7,2.4c-0.7,0.7-1.5,1.3-2.4,1.7c-0.9,0.4-1.9,0.6-3,0.6c-1.1,0-2.1-0.2-3-0.6s-1.7-1-2.4-1.7
					c-0.7-0.7-1.3-1.5-1.7-2.4C338.1,38.4,337.9,37.4,337.9,36.3z M339.3,36.3c0,0.9,0.2,1.7,0.5,2.5c0.3,0.8,0.8,1.4,1.4,2
					c0.6,0.6,1.2,1,2,1.4c0.8,0.3,1.6,0.5,2.5,0.5c0.9,0,1.7-0.2,2.5-0.5s1.4-0.8,2-1.4c0.6-0.6,1-1.2,1.4-2
					c0.3-0.8,0.5-1.6,0.5-2.5c0-0.9-0.2-1.7-0.5-2.5c-0.3-0.8-0.8-1.4-1.4-2s-1.2-1-2-1.4s-1.6-0.5-2.5-0.5c-0.9,0-1.7,0.2-2.5,0.5
					c-0.8,0.3-1.4,0.8-2,1.4s-1,1.2-1.4,2C339.4,34.6,339.3,35.4,339.3,36.3z M342.7,31.8h3.4c1.1,0,1.8,0.2,2.4,0.7s0.8,1.1,0.8,2
					c0,0.8-0.2,1.4-0.6,1.7c-0.4,0.4-0.9,0.6-1.5,0.7l2.3,3.7h-1.7l-2.2-3.6h-1.2v3.6h-1.6V31.8z M344.3,35.7h1.2c0.2,0,0.5,0,0.7,0
					c0.2,0,0.5-0.1,0.7-0.2c0.2-0.1,0.4-0.2,0.5-0.4c0.1-0.2,0.2-0.4,0.2-0.7s-0.1-0.5-0.2-0.7c-0.1-0.2-0.3-0.3-0.5-0.4
					c-0.2-0.1-0.4-0.1-0.7-0.1c-0.2,0-0.5,0-0.7,0h-1.2V35.7z"/>
			</g>
		</g>
	</g>
</g>
<g>
</g>
<g>
</g>
<g>
</g>
<g>
</g>
<g>
</g>
<g>
</g>
</svg>
